<svg width="61" height="61" viewBox="0 0 61 61" fill="none" xmlns="http://www.w3.org/2000/svg">
<circle cx="30.5" cy="30.5" r="30.5" fill="white"/>
<path d="M9.2 37.1C9.02667 37.1 8.88667 37.08 8.78 37.04C8.67333 37.0133 8.62 36.96 8.62 36.88C8.62 36.72 8.84 36.6 9.28 36.52C9.78667 36.4267 10.1333 36.2733 10.32 36.06C10.52 35.8333 10.62 35.4733 10.62 34.98V25.98C10.62 25.5133 10.52 25.1867 10.32 25C10.1333 24.8 9.78667 24.6533 9.28 24.56C8.84 24.48 8.62 24.3467 8.62 24.16C8.62 24.08 8.67333 24.0267 8.78 24C8.88667 23.96 9.02667 23.94 9.2 23.94C9.56 23.94 9.84667 23.9467 10.06 23.96C10.2867 23.96 10.5 23.9667 10.7 23.98C10.9 23.98 11.1467 23.98 11.44 23.98C11.6933 23.98 11.8933 23.98 12.04 23.98C12.2 23.9667 12.3733 23.96 12.56 23.96C12.7467 23.9467 13.02 23.94 13.38 23.94C13.5533 23.94 13.6933 23.96 13.8 24C13.9067 24.0267 13.96 24.08 13.96 24.16C13.96 24.2533 13.9067 24.3333 13.8 24.4C13.6933 24.4667 13.5267 24.52 13.3 24.56C12.8067 24.6533 12.5 24.82 12.38 25.06C12.2733 25.2867 12.22 25.5933 12.22 25.98V29.72C12.22 29.7733 12.22 29.8533 12.22 29.96C12.2333 30.0533 12.2667 30.1 12.32 30.1C12.3867 30.1 12.4733 30.06 12.58 29.98C12.7 29.9 12.7933 29.82 12.86 29.74L16.86 25.66C16.9667 25.5533 17.04 25.4533 17.08 25.36C17.1333 25.2533 17.16 25.1533 17.16 25.06C17.16 24.82 17.0333 24.6667 16.78 24.6C16.5533 24.5333 16.3933 24.4733 16.3 24.42C16.2067 24.3667 16.16 24.2933 16.16 24.2C16.16 24.12 16.2133 24.0667 16.32 24.04C16.4267 24 16.5667 23.98 16.74 23.98H17.82C18.2067 23.98 18.6333 23.9733 19.1 23.96C19.5667 23.9467 19.9867 23.9333 20.36 23.92C20.7467 23.9067 20.98 23.9 21.06 23.9C21.1933 23.9 21.3 23.92 21.38 23.96C21.46 24 21.5 24.0533 21.5 24.12C21.5 24.2133 21.4467 24.2933 21.34 24.36C21.2333 24.4267 21.0667 24.48 20.84 24.52C20.3467 24.6133 19.8333 24.76 19.3 24.96C18.7667 25.16 18.2667 25.4533 17.8 25.84C17.32 26.24 16.8733 26.6333 16.46 27.02C16.06 27.3933 15.66 27.7867 15.26 28.2C14.86 28.6 14.4267 29.06 13.96 29.58C13.88 29.66 13.9133 29.78 14.06 29.94L18.9 35.1C19.1933 35.42 19.4267 35.6667 19.6 35.84C19.7867 36.0133 19.9867 36.1533 20.2 36.26C20.4267 36.3533 20.7267 36.44 21.1 36.52C21.3267 36.5733 21.4933 36.6267 21.6 36.68C21.7067 36.72 21.76 36.7867 21.76 36.88C21.76 36.96 21.7067 37.0133 21.6 37.04C21.4933 37.08 21.3533 37.1 21.18 37.1C20.7933 37.1 20.46 37.0867 20.18 37.06C19.9 37.0467 19.6267 37.0333 19.36 37.02C19.0933 37.0067 18.7733 37 18.4 37C18.1467 37 17.9267 37 17.74 37C17.5533 37.0133 17.2333 37.02 16.78 37.02C16.6067 37.02 16.4667 37.0067 16.36 36.98C16.2533 36.94 16.2 36.88 16.2 36.8C16.2 36.6533 16.38 36.54 16.74 36.46C17.1133 36.3667 17.3 36.2333 17.3 36.06C17.3 35.98 17.2667 35.9 17.2 35.82C17.1467 35.74 17.08 35.6533 17 35.56L12.76 30.88C12.68 30.8 12.5933 30.7267 12.5 30.66C12.42 30.58 12.3533 30.54 12.3 30.54C12.2467 30.54 12.22 30.5933 12.22 30.7C12.22 30.8067 12.22 30.8933 12.22 30.96C12.22 31.5867 12.2267 32.1867 12.24 32.76C12.2667 33.32 12.2933 34 12.32 34.8C12.3333 35.08 12.3733 35.34 12.44 35.58C12.52 35.82 12.6467 36.02 12.82 36.18C13.0067 36.34 13.2667 36.4533 13.6 36.52C13.8267 36.56 13.9933 36.6067 14.1 36.66C14.2067 36.7133 14.26 36.7867 14.26 36.88C14.26 36.96 14.2067 37.0133 14.1 37.04C13.9933 37.08 13.8533 37.1 13.68 37.1C13.32 37.1 13.04 37.0867 12.84 37.06C12.6533 37.0333 12.48 37.0133 12.32 37C12.1733 36.9733 11.9733 36.96 11.72 36.96C11.4 36.96 11.1133 36.9733 10.86 37C10.62 37.0133 10.3733 37.0333 10.12 37.06C9.86667 37.0867 9.56 37.1 9.2 37.1ZM26.2933 37.28C25.5466 37.28 24.8733 37.1067 24.2733 36.76C23.6733 36.4133 23.1933 35.94 22.8333 35.34C22.4866 34.7267 22.3133 34.0333 22.3133 33.26C22.3133 32.7 22.4199 32.1533 22.6333 31.62C22.8599 31.0867 23.1733 30.6 23.5733 30.16C23.9733 29.72 24.4399 29.3733 24.9733 29.12C25.5066 28.8533 26.0799 28.72 26.6933 28.72C27.4666 28.72 28.1599 28.9067 28.7733 29.28C29.3999 29.6533 29.8933 30.1467 30.2533 30.76C30.6266 31.36 30.8133 32.02 30.8133 32.74C30.8133 33.5133 30.6399 34.2467 30.2933 34.94C29.9599 35.6333 29.4599 36.2 28.7933 36.64C28.1266 37.0667 27.2933 37.28 26.2933 37.28ZM26.7133 36.68C27.1666 36.68 27.5733 36.5933 27.9333 36.42C28.2933 36.2467 28.5733 35.9667 28.7733 35.58C28.9333 35.2733 29.0399 34.9 29.0933 34.46C29.1466 34.02 29.1733 33.6067 29.1733 33.22C29.1733 32.58 29.0533 31.9667 28.8133 31.38C28.5866 30.78 28.2599 30.2933 27.8333 29.92C27.4199 29.5333 26.9266 29.34 26.3533 29.34C25.9933 29.34 25.6666 29.4 25.3733 29.52C25.0933 29.6267 24.8333 29.8333 24.5933 30.14C24.3266 30.4733 24.1533 30.88 24.0733 31.36C23.9933 31.84 23.9533 32.32 23.9533 32.8C23.9533 33.4533 24.0733 34.08 24.3133 34.68C24.5533 35.2667 24.8799 35.7467 25.2933 36.12C25.7066 36.4933 26.1799 36.68 26.7133 36.68ZM32.3956 37.06C32.289 37.06 32.1956 37.0467 32.1156 37.02C32.0356 36.9933 31.9956 36.9333 31.9956 36.84C31.9956 36.7467 32.0356 36.68 32.1156 36.64C32.209 36.6 32.3223 36.56 32.4556 36.52C32.6423 36.4533 32.829 36.38 33.0156 36.3C33.2156 36.2067 33.3156 36.0267 33.3156 35.76V31.46C33.3156 31.1 33.2756 30.7867 33.1956 30.52C33.1156 30.24 32.9023 30.0733 32.5556 30.02C32.5023 30.0067 32.4556 29.98 32.4156 29.94C32.389 29.9 32.3756 29.84 32.3756 29.76C32.3756 29.6267 32.429 29.5467 32.5356 29.52C32.8956 29.4267 33.1823 29.3333 33.3956 29.24C33.609 29.1333 33.7956 29.02 33.9556 28.9C34.129 28.7667 34.3356 28.6267 34.5756 28.48C34.6023 28.4667 34.629 28.4533 34.6556 28.44C34.6823 28.4133 34.7156 28.4 34.7556 28.4C34.8356 28.4 34.8756 28.4467 34.8756 28.54C34.8756 28.6333 34.8556 28.8267 34.8156 29.12C34.789 29.4 34.7756 29.6333 34.7756 29.82C34.7756 29.9533 34.789 30.0333 34.8156 30.06H34.8556C35.1623 29.7667 35.5623 29.4733 36.0556 29.18C36.5623 28.8733 37.2023 28.72 37.9756 28.72C38.4556 28.72 38.8556 28.8267 39.1756 29.04C39.4956 29.24 39.7623 29.5933 39.9756 30.1H40.0356C40.4623 29.7133 40.949 29.3867 41.4956 29.12C42.0423 28.8533 42.6423 28.72 43.2956 28.72C43.7356 28.72 44.1023 28.8533 44.3956 29.12C44.689 29.3867 44.909 29.7333 45.0556 30.16C45.2156 30.5867 45.2956 31.0333 45.2956 31.5V35.76C45.2956 36.0267 45.389 36.2067 45.5756 36.3C45.7623 36.38 45.9556 36.4533 46.1556 36.52C46.289 36.56 46.3956 36.6 46.4756 36.64C46.569 36.68 46.6156 36.7467 46.6156 36.84C46.6156 36.92 46.5823 36.9733 46.5156 37C46.4623 37.04 46.3623 37.06 46.2156 37.06C45.949 37.06 45.7423 37.0467 45.5956 37.02C45.449 37.0067 45.309 36.9933 45.1756 36.98C45.0556 36.9667 44.8756 36.96 44.6356 36.96C44.409 36.96 44.2223 36.9667 44.0756 36.98C43.929 36.9933 43.7756 37.0067 43.6156 37.02C43.4556 37.0467 43.2423 37.06 42.9756 37.06C42.8556 37.06 42.7556 37.04 42.6756 37C42.609 36.9733 42.5756 36.92 42.5756 36.84C42.5756 36.7333 42.6156 36.66 42.6956 36.62C42.789 36.58 42.9023 36.5467 43.0356 36.52C43.249 36.4667 43.4423 36.3933 43.6156 36.3C43.8023 36.2067 43.8956 36.0267 43.8956 35.76V31.56C43.8956 31.24 43.8223 30.94 43.6756 30.66C43.529 30.3667 43.3356 30.1267 43.0956 29.94C42.8556 29.7533 42.589 29.66 42.2956 29.66C41.9623 29.66 41.649 29.7 41.3556 29.78C41.0756 29.86 40.809 30 40.5556 30.2C40.1823 30.4933 39.9956 30.9733 39.9956 31.64V35.76C39.9956 36.0267 40.0956 36.2067 40.2956 36.3C40.4956 36.3933 40.6956 36.4667 40.8956 36.52C41.029 36.5467 41.1356 36.5867 41.2156 36.64C41.309 36.68 41.3556 36.7467 41.3556 36.84C41.3556 36.92 41.3223 36.9733 41.2556 37C41.189 37.04 41.089 37.06 40.9556 37.06C40.689 37.06 40.4756 37.0467 40.3156 37.02C40.169 37.0067 40.0223 36.9933 39.8756 36.98C39.7423 36.9667 39.5556 36.96 39.3156 36.96C39.089 36.96 38.9023 36.9667 38.7556 36.98C38.609 36.9933 38.4556 37.0067 38.2956 37.02C38.1356 37.0467 37.9223 37.06 37.6556 37.06C37.549 37.06 37.4556 37.04 37.3756 37C37.2956 36.9733 37.2556 36.92 37.2556 36.84C37.2556 36.7333 37.3023 36.6667 37.3956 36.64C37.5023 36.6 37.609 36.56 37.7156 36.52C37.9156 36.4533 38.109 36.38 38.2956 36.3C38.4956 36.2067 38.5956 36.0267 38.5956 35.76V31.56C38.5956 31.24 38.5223 30.94 38.3756 30.66C38.229 30.3667 38.0356 30.1267 37.7956 29.94C37.5556 29.7533 37.289 29.66 36.9956 29.66C36.6623 29.66 36.349 29.7 36.0556 29.78C35.7756 29.86 35.509 30 35.2556 30.2C34.8956 30.4667 34.7156 30.9467 34.7156 31.64V35.76C34.7156 36.0267 34.809 36.2067 34.9956 36.3C35.1823 36.38 35.3756 36.4533 35.5756 36.52C35.6823 36.56 35.7823 36.6 35.8756 36.64C35.9823 36.6667 36.0356 36.7333 36.0356 36.84C36.0356 36.92 35.9956 36.9733 35.9156 37C35.849 37.04 35.7556 37.06 35.6356 37.06C35.369 37.06 35.1556 37.0467 34.9956 37.02C34.849 37.0067 34.709 36.9933 34.5756 36.98C34.4423 36.9667 34.2556 36.96 34.0156 36.96C33.789 36.96 33.6023 36.9667 33.4556 36.98C33.3223 36.9933 33.1756 37.0067 33.0156 37.02C32.869 37.0467 32.6623 37.06 32.3956 37.06ZM49.382 37.28C49.0887 37.28 48.8287 37.1733 48.602 36.96C48.3887 36.7333 48.282 36.4733 48.282 36.18C48.282 35.8733 48.3887 35.6133 48.602 35.4C48.8287 35.1867 49.0887 35.08 49.382 35.08C49.6887 35.08 49.9487 35.1867 50.162 35.4C50.3754 35.6133 50.482 35.8733 50.482 36.18C50.482 36.4733 50.3754 36.7333 50.162 36.96C49.9487 37.1733 49.6887 37.28 49.382 37.28Z" fill="black"/>
</svg>
